<svg width="60" height="38" viewBox="0 0 60 38" fill="none" xmlns="http://www.w3.org/2000/svg">
<path d="M60 21C60 21.6 59.6 22 59 22H41.9C41.5 22 41.1 21.7 41 21.3L35.2 3.8L20.9 36.6C20.7 37 20.4 37.2 20 37.2H19.9C19.5 37.2 19.1 36.8 19 36.4L14 11L9.6 21.4C9.4 21.8 9.1 22 8.7 22H1C0.4 22 0 21.6 0 21C0 20.4 0.4 20 1 20H7.9L13.3 7.3C13.5 6.9 13.9 6.7 14.3 6.7C14.7 6.7 15.1 7.1 15.2 7.5L20.3 32.9L34.3 0.6C34.5 0.2 34.9 0 35.3 0C35.7 0 36.1 0.299999 36.2 0.699999L42.6 20H59C59.6 20 60 20.4 60 21Z" fill="black"/>
</svg>
